<svg preserveAspectRatio="xMidYMid meet" data-bbox="0 -0.014 1564.027 1225.064" viewBox="0 0 1563.9 1225" xmlns:xlink="http://www.w3.org/1999/xlink" xmlns="http://www.w3.org/2000/svg" data-type="ugc" role="presentation" aria-hidden="true" aria-label="">
    <g>
        <defs>
            <linearGradient gradientUnits="userSpaceOnUse" gradientTransform="rotate(12.2 199.512 773.19)" y2="-144.5" x2="1115.6" y1="509" x1="462.1" id="6e33afd2-e988-4b55-93bf-6f3d74e8539a_comp-m8939kpa">
                <stop stop-color="#582d7f" offset="0"></stop>
                <stop stop-color="#4a5094" offset=".2"></stop>
                <stop stop-color="#29a6c7" offset=".8"></stop>
                <stop stop-color="#1dc9dc" offset="1"></stop>
            </linearGradient>
            <linearGradient xlink:href="#6e33afd2-e988-4b55-93bf-6f3d74e8539a_comp-m8939kpa" y2="612.5" x2="1563.9" y1="612.5" x1="126" id="39a0afbe-60d0-44e4-9b83-f6fc8f0b29b6_comp-m8939kpa"></linearGradient>
            <linearGradient xlink:href="#6e33afd2-e988-4b55-93bf-6f3d74e8539a_comp-m8939kpa" y2="648.3" x2="1303.1" y1="648.3" x1="1067.7" id="8ef57420-7ee9-4030-8590-b832072ee72c_comp-m8939kpa"></linearGradient>
            <linearGradient xlink:href="#6e33afd2-e988-4b55-93bf-6f3d74e8539a_comp-m8939kpa" y2="735.8" x2="566.9" y1="735.8" x1="286.9" id="291412b9-80f5-4a65-8267-a122ae92d6d5_comp-m8939kpa"></linearGradient>
            <linearGradient xlink:href="#6e33afd2-e988-4b55-93bf-6f3d74e8539a_comp-m8939kpa" y2="464.9" x2="821.6" y1="464.9" x1="409.5" id="bbe363c8-2326-4d24-9b12-51e6c819a77c_comp-m8939kpa"></linearGradient>
            <linearGradient gradientUnits="userSpaceOnUse" y2="942.4" x2="845.7" y1="1185.8" x1="843.8" id="730ef04b-7f2f-4faf-b20a-d6e076a0847b_comp-m8939kpa">
                <stop stop-color="#d1d3d4" offset="0"></stop>
                <stop stop-color="#9d9e9f" offset="1"></stop>
            </linearGradient>
            <linearGradient gradientUnits="userSpaceOnUse" y2="1006.8" x2="827.6" y1="1155.8" x1="597.6" id="0a83d924-9704-41d3-b271-2813063a2292_comp-m8939kpa">
                <stop stop-color="#9d9e9f" offset="0"></stop>
                <stop stop-color="#d1d3d4" offset="1"></stop>
            </linearGradient>
            <linearGradient xlink:href="#6e33afd2-e988-4b55-93bf-6f3d74e8539a_comp-m8939kpa" y2="857.4" x2="607.8" y1="463" x1="1002.2" id="4bdd2af3-adb6-4d0b-9cd8-34c8b090ecd5_comp-m8939kpa"></linearGradient>
            <linearGradient gradientUnits="userSpaceOnUse" y2="439.5" x2="807.2" y1="747.5" x1="661.2" id="a325fe52-587f-4a26-a8ae-0d8cf5ddbdc3_comp-m8939kpa">
                <stop stop-color="#bbbbbb" offset="0"></stop>
                <stop stop-color="#cccccc" offset="0"></stop>
                <stop stop-color="#dcdddd" offset=".1"></stop>
                <stop stop-color="#e8e9e9" offset=".2"></stop>
                <stop stop-color="#eff0f0" offset=".3"></stop>
                <stop stop-color="#f1f2f2" offset=".6"></stop>
                <stop stop-color="#ffffff" offset="1"></stop>
            </linearGradient>
            <linearGradient xlink:href="#a325fe52-587f-4a26-a8ae-0d8cf5ddbdc3_comp-m8939kpa" y2="317.2" x2="738.5" y1="641.8" x1="738.5" id="2a988dbd-b84a-4fe1-a93c-df16e873c8cf_comp-m8939kpa"></linearGradient>
            <linearGradient xlink:href="#a325fe52-587f-4a26-a8ae-0d8cf5ddbdc3_comp-m8939kpa" y2="792.2" x2="609.4" y1="936.9" x1="464.7" id="e535a304-9c84-4219-9580-2acf00292003_comp-m8939kpa"></linearGradient>
            <linearGradient gradientUnits="userSpaceOnUse" y2="353.2" x2="966.8" y1="353.2" x1="831" id="74daf0b7-6cf9-4613-ab00-bf01dbaaa5e4_comp-m8939kpa">
                <stop stop-color="#ffde39" offset="0"></stop>
                <stop stop-color="#fec63c" offset="0"></stop>
                <stop stop-color="#fe9843" offset=".3"></stop>
                <stop stop-color="#fe7d4b" offset=".4"></stop>
                <stop stop-color="#fe4f59" offset=".7"></stop>
                <stop stop-color="#ed327f" offset="1"></stop>
            </linearGradient>
            <linearGradient xlink:href="#0a83d924-9704-41d3-b271-2813063a2292_comp-m8939kpa" y2="443.9" x2="888" y1="485.6" x1="929.8" id="44556fdd-bcc5-46e7-9bdc-1be8c23ca3b8_comp-m8939kpa"></linearGradient>
            <linearGradient xlink:href="#0a83d924-9704-41d3-b271-2813063a2292_comp-m8939kpa" y2="449" x2="908.9" y1="406.6" x1="866.6" id="c11bb076-b836-43ca-be68-9909fc581485_comp-m8939kpa"></linearGradient>
            <linearGradient xlink:href="#74daf0b7-6cf9-4613-ab00-bf01dbaaa5e4_comp-m8939kpa" y2="280.1" x2="1074.2" y1="457" x1="897.4" id="97aa320a-2110-4d28-a0a3-da63efec5091_comp-m8939kpa"></linearGradient>
            <linearGradient xlink:href="#74daf0b7-6cf9-4613-ab00-bf01dbaaa5e4_comp-m8939kpa" y2="464.3" x2="1023" y1="464.3" x1="957.8" id="2366b94e-d6e6-4936-b95a-4a0c922feb68_comp-m8939kpa"></linearGradient>
            <linearGradient xlink:href="#730ef04b-7f2f-4faf-b20a-d6e076a0847b_comp-m8939kpa" y2="346.4" x2="1039.3" y1="346.4" x1="985.5" id="02650926-cb7d-4c43-bacf-4a32d009c7ff_comp-m8939kpa"></linearGradient>
            <linearGradient xlink:href="#730ef04b-7f2f-4faf-b20a-d6e076a0847b_comp-m8939kpa" gradientTransform="rotate(22.1 947.315 404.279)" y2="403.5" x2="966.8" y1="403.5" x1="925.3" id="9a4d8905-aef5-4c17-b80a-e777bfdb34f4_comp-m8939kpa"></linearGradient>
            <linearGradient gradientUnits="userSpaceOnUse" y2="907.6" x2="568.9" y1="907.6" x1="517.2" id="7aaf2771-a2b3-4a87-bcca-1ce145dec862_comp-m8939kpa">
                <stop stop-color="#42e397" offset="0"></stop>
                <stop stop-color="#42e099" offset="0"></stop>
                <stop stop-color="#3cb6b5" offset="1"></stop>
            </linearGradient>
            <linearGradient gradientUnits="userSpaceOnUse" y2="1003.3" x2="611.4" y1="818.6" x1="611.4" id="6f287d7f-bcc4-4765-b4e7-ebd1d9be3d9e_comp-m8939kpa">
                <stop stop-color="#42e397" offset="0"></stop>
                <stop stop-color="#3cb6b5" offset="1"></stop>
            </linearGradient>
            <linearGradient xlink:href="#6f287d7f-bcc4-4765-b4e7-ebd1d9be3d9e_comp-m8939kpa" y2="1003.3" x2="734" y1="818.6" x1="734" id="5fd0fad0-3efc-4cba-bf03-ef9ff2d2cf18_comp-m8939kpa"></linearGradient>
            <linearGradient xlink:href="#6f287d7f-bcc4-4765-b4e7-ebd1d9be3d9e_comp-m8939kpa" y2="1003.3" x2="669.5" y1="818.6" x1="669.5" id="a69b9412-3311-442f-a8e3-6b2da594d5d6_comp-m8939kpa"></linearGradient>
            <linearGradient xlink:href="#6f287d7f-bcc4-4765-b4e7-ebd1d9be3d9e_comp-m8939kpa" y2="1003.3" x2="792.2" y1="818.6" x1="792.2" id="c2c473be-ca48-49af-af2c-244500d1e2c8_comp-m8939kpa"></linearGradient>
            <linearGradient gradientUnits="userSpaceOnUse" y2="485.1" x2="406.9" y1="481.7" x1="592.4" id="82003e85-5ec9-4c01-8f0f-795325700a0c_comp-m8939kpa">
                <stop stop-color="#d1d3d4" offset="0"></stop>
                <stop stop-color="#f1f2f2" offset="1"></stop>
            </linearGradient>
            <linearGradient xlink:href="#6f287d7f-bcc4-4765-b4e7-ebd1d9be3d9e_comp-m8939kpa" y2="489.9" x2="69.9" y1="532.8" x1="-272.3" id="6abb672f-c342-4656-a1bd-8abf6d08aa0d_comp-m8939kpa"></linearGradient>
            <linearGradient gradientUnits="userSpaceOnUse" y2="574.7" x2="362.3" y1="850.1" x1="88.5" id="73bb85e5-319f-4233-8bce-83f79d18eccf_comp-m8939kpa">
                <stop stop-color="#582d7f" offset="0"></stop>
                <stop stop-color="#1dc9dc" offset="1"></stop>
            </linearGradient>
            <linearGradient xlink:href="#6f287d7f-bcc4-4765-b4e7-ebd1d9be3d9e_comp-m8939kpa" y2="548.2" x2="545.1" y1="548.2" x1="237.5" id="aa3f7dbb-3d62-4f7e-9bda-9299d5df1c05_comp-m8939kpa"></linearGradient>
            <linearGradient xlink:href="#6e33afd2-e988-4b55-93bf-6f3d74e8539a_comp-m8939kpa" y2="105.9" x2="1335.5" y1="759.4" x1="682" id="d3a9f8aa-e9a8-4c4b-b0c2-e43337f0666d_comp-m8939kpa"></linearGradient>
            <linearGradient gradientUnits="userSpaceOnUse" gradientTransform="rotate(45 214.875 112.804)" y2="-466.2" x2="793.9" y1="187.3" x1="140.4" id="d6e772e4-39bb-4373-9134-83af4ba8a115_comp-m8939kpa">
                <stop stop-color="#582d7f" offset="0"></stop>
                <stop stop-color="#543584" offset="0"></stop>
                <stop stop-color="#3194bc" offset=".6"></stop>
                <stop stop-color="#29a7c7" offset=".8"></stop>
                <stop stop-color="#1dc9dc" offset="1"></stop>
            </linearGradient>
            <linearGradient xlink:href="#a325fe52-587f-4a26-a8ae-0d8cf5ddbdc3_comp-m8939kpa" y2="664.1" x2="1159.5" y1="576.4" x1="1163" id="1421dd2b-2afb-4e21-b4c9-1228308ac084_comp-m8939kpa"></linearGradient>
            <linearGradient xlink:href="#a325fe52-587f-4a26-a8ae-0d8cf5ddbdc3_comp-m8939kpa" y2="822.4" x2="1135.8" y1="433.5" x1="1135.8" id="3e52bc4c-2b5f-4465-b23f-fe0d5db7ea9e_comp-m8939kpa"></linearGradient>
            <linearGradient xlink:href="#6f287d7f-bcc4-4765-b4e7-ebd1d9be3d9e_comp-m8939kpa" y2="1068.8" x2="1135.8" y1="719.8" x1="1135.8" id="c7d03408-12e3-4537-b7eb-f538c793c6c2_comp-m8939kpa"></linearGradient>
            <linearGradient xlink:href="#6f287d7f-bcc4-4765-b4e7-ebd1d9be3d9e_comp-m8939kpa" y2="701.7" x2="1200.9" y1="701.7" x1="1069.1" id="1e4c39b9-9995-4e67-9790-b3bbdaad53dd_comp-m8939kpa"></linearGradient>
            <linearGradient gradientUnits="userSpaceOnUse" y2="729.3" x2="1202.7" y1="729.3" x1="1067.7" id="1fd31dfa-dd3c-4e27-bb7c-4f6c538661f5_comp-m8939kpa">
                <stop stop-color="#ceecfa" offset="0"></stop>
                <stop stop-color="#ee6ee4" offset="1"></stop>
            </linearGradient>
            <linearGradient xlink:href="#6e33afd2-e988-4b55-93bf-6f3d74e8539a_comp-m8939kpa" y2="830.8" x2="1088.4" y1="998.4" x1="1088.4" id="64dfa0c2-1d73-40cb-95e4-7b43f73f23dd_comp-m8939kpa"></linearGradient>
            <linearGradient xlink:href="#6e33afd2-e988-4b55-93bf-6f3d74e8539a_comp-m8939kpa" y2="54.1" x2="828.8" y1="54.1" x1="560.4" id="96a249f5-379b-4e1f-ba4c-2061c9d44193_comp-m8939kpa"></linearGradient>
            <linearGradient xlink:href="#6e33afd2-e988-4b55-93bf-6f3d74e8539a_comp-m8939kpa" y2="112.8" x2="940.5" y1="112.8" x1="790.5" id="efde5082-a9e7-46dd-9303-f8999e99f195_comp-m8939kpa"></linearGradient>
            <linearGradient xlink:href="#6e33afd2-e988-4b55-93bf-6f3d74e8539a_comp-m8939kpa" y2="516.3" x2="1491.5" y1="516.3" x1="1367" id="6c1c1893-2632-4017-9e6c-1d197fff350a_comp-m8939kpa"></linearGradient>
            <linearGradient xlink:href="#6e33afd2-e988-4b55-93bf-6f3d74e8539a_comp-m8939kpa" y2="110.4" x2="566" y1="110.4" x1="224.7" id="2fea4ff9-6ccc-4c11-8f6a-af9db740f4e0_comp-m8939kpa"></linearGradient>
            <linearGradient xlink:href="#6e33afd2-e988-4b55-93bf-6f3d74e8539a_comp-m8939kpa" y2="740.6" x2="1563.9" y1="740.6" x1="1419.5" id="ac13ce54-040d-4042-b075-dc30b14c7961_comp-m8939kpa"></linearGradient>
            <linearGradient xlink:href="#6e33afd2-e988-4b55-93bf-6f3d74e8539a_comp-m8939kpa" y2="1171.4" x2="802.2" y1="1171.4" x1="630.5" id="82fc550d-cb59-4761-8a8f-ed4897fb0f5a_comp-m8939kpa"></linearGradient>
            <linearGradient xlink:href="#6e33afd2-e988-4b55-93bf-6f3d74e8539a_comp-m8939kpa" y2="1140.6" x2="630.5" y1="1140.6" x1="299.6" id="1111fbfc-9eb6-4632-85c3-653a95dd853e_comp-m8939kpa"></linearGradient>
            <linearGradient xlink:href="#6e33afd2-e988-4b55-93bf-6f3d74e8539a_comp-m8939kpa" y2="1188.4" x2="690.2" y1="1188.4" x1="617.6" id="c222525c-b42f-4905-ad23-822216cb6092_comp-m8939kpa"></linearGradient>
        </defs>
        <path transform="rotate(-12.2 199.863 773.282)" fill="url(#6e33afd2-e988-4b55-93bf-6f3d74e8539a_comp-m8939kpa)" d="M254.2 771.8c0 30.32-24.58 54.9-54.9 54.9s-54.9-24.58-54.9-54.9 24.58-54.9 54.9-54.9 54.9 24.58 54.9 54.9"></path>
        <path d="M1548.9 637.9c-41.4-130-168.4-229.4-306.8-240.4-54.4-4.3-112.7 3.1-160.3-23-62.6-34.3-82-111.2-115.5-173.3C908.2 93.7 792.8 19.9 669.8 3.6c-122.9-16.2-250.8 23-347.5 98.9C176.2 217.4 44.9 474.7 187.2 639.1c27.2 31.4 63.4 57.8 76.9 96.8 14.4 41.3-.2 86.1-5.5 129.4-16.3 131.4 62.7 267.7 184 326.3 121.3 58.5 276.2 38.3 381-45.2 61.7-49.2 108.4-118.5 180.6-151.2 129.2-58.5 290.8 20.8 420.9-36.1 58.3-25.5 102.9-77.2 123.9-136.4 13.1-37.1 17.3-76.8 13.9-116-2-23.3-6.7-46.4-13.8-68.8Z" fill="url(#39a0afbe-60d0-44e4-9b83-f6fc8f0b29b6_comp-m8939kpa)"></path>
        <path d="M1301.5 551.8c-3.6-21-17.3-42.6-39.6-46.6-10.9-2-22 .4-32.9-1.1-8.9-1.2-17.3-5.5-24.8-10.3-15.4-9.8-28.4-23.8-45.9-30-23.4-8.3-49.1.9-62.7 21.6-11.5 17.6-12.5 40.7-27.9 56.1l46.9 279.2c55.5 19.4 128.3 27.9 169.7-23.8 23.6-29.5 20.9-61.6 12.1-95.8-6.6-25.6-6.7-53-.6-78.7 5.4-22.8 9.8-47.2 5.8-70.6Z" fill="url(#8ef57420-7ee9-4030-8590-b832072ee72c_comp-m8939kpa)"></path>
        <path d="M552.9 741.8c-7.3-48.2-14.6-96.3-22-144.5v-.3l-241.5 64.5c-7.9 17.6 3.5 38.8 19.5 47.2 34.6 18.2 78.1-9.6 93.6 40.8 10.9 35.5 3 69.1 32 98.2 27.4 27.4 68.6 33.7 103.9 19.2 10.9-4.5 21.1-12.1 25.6-23 6.9-16.6-1.1-33.9-4.2-50.3-3.2-17-4.5-34.7-7.1-51.8Z" fill="url(#291412b9-80f5-4a65-8267-a122ae92d6d5_comp-m8939kpa)"></path>
        <path d="M714.6 451.5c-31.9-7.8-73.2-8.3-94.4-37.6-18.6-25.6-12.6-61.3-27.2-89-13.8-26.2-44.7-40.4-73.4-41.1-40.2-.9-77.6 20.2-110.1 41.7l103.1 225.3 288.3 95.1c19.6-36.4 30.1-90.3 9.9-128.5-19.1-36.1-57.7-56.6-96-66Z" fill="url(#bbe363c8-2326-4d24-9b12-51e6c819a77c_comp-m8939kpa)"></path>
        <path d="M760.3 1186.3c22.5-11.1 43.7-24.4 63.2-40 38-30.3 70.3-68.2 106.3-100.5v-12.6H760c0 35 .2 113.9.2 153.1Z" fill="url(#730ef04b-7f2f-4faf-b20a-d6e076a0847b_comp-m8939kpa)"></path>
        <path d="M459.2 990.9c0 26 21.1 47.1 47.1 47.1h677.3c26 0 47.1-21.1 47.1-47.1v-16.3H459.2z" fill="url(#0a83d924-9704-41d3-b271-2813063a2292_comp-m8939kpa)"></path>
        <path d="M1183.6 519.6H506.3c-26 0-47.1 21.1-47.1 47.1v407.9h771.5V566.7c0-26-21.1-47.1-47.1-47.1" fill="#ffffff"></path>
        <path fill="url(#4bdd2af3-adb6-4d0b-9cd8-34c8b090ecd5_comp-m8939kpa)" d="M721.4 600.3H517.2v250.5h445.1V600.3z"></path>
        <path d="M782.2 505.8c-27.1 15.1-32.3 14.7-48.7 27.3-40.4 31.1-62 74.6-68.8 89.7-15.6 34.2-14.6 48.2-31.5 63-8.3 7.3-23.1 14.7-51.5 12l42.5 74 59.4-4.9c7.9-36 23.1-53.3 36-62.4 21.8-15.5 40.6-10.1 54-28 11.2-14.9 4.5-27 8.4-54.9 4.6-33.3 19.3-55.8 39.6-85.8 27.1-39.9 58.8-65.3 81-80-7.9-6.4-15.8-12.9-23.7-19.3-37.9 33.9-72 55.6-96.7 69.3" fill="url(#a325fe52-587f-4a26-a8ae-0d8cf5ddbdc3_comp-m8939kpa)"></path>
        <path d="M762.2 545.1c-7.2 14.2-6.5 19.8-11.3 33.3-11.6 32.5-33.2 49.1-84 90.7-17.7 14.5-47 38.6-85.2 70.7 29.7 17.1 59.4 34.2 89.2 51.3-8-35.5-1-55.7 6.7-67.7 15.2-23.5 38.2-21.9 59-48.3 13.2-16.7 10.4-25.5 21.3-58.3 7.1-21.3 26.2-78.6 72.3-119.7 11.9-10.6 34.3-27.4 64.5-39l.6-8.3c-34.3 11.4-59.7 26.4-76.3 37.9-21.7 15-42.7 29.9-56.8 57.3Z" fill="url(#2a988dbd-b84a-4fe1-a93c-df16e873c8cf_comp-m8939kpa)"></path>
        <path d="M759.3 761.2q-5.55 0-10.5 1.8c1.8-4.3 2.8-9.1 2.8-14.1 0-20.4-16.5-36.9-36.9-36.9s-36.9 16.5-36.9 36.9.1 3.1.3 4.7c-1.9.7-6.9 4.5-8.7 4.3-1.7-.2-4.1-4.8-5.4-6.2-7.4-8.8-16.4-15.5-27.1-19.7-6.6-2.6-16.3-2.8-21.5-8-3.4-3.5-6-7.9-9-11.7-13.7-17.6-35.6-29.3-58-29.3s-22.2 2.2-31.4 6.1v161.8h229v-4c5.5-6.6 9.5-14.3 11.7-22.8h1.4c17.3 0 31.4-14.1 31.4-31.4s-14.1-31.4-31.4-31.4Z" fill="url(#e535a304-9c84-4219-9580-2acf00292003_comp-m8939kpa)"></path>
        <path fill="url(#74daf0b7-6cf9-4613-ab00-bf01dbaaa5e4_comp-m8939kpa)" d="m831 373.8 62.1 8.9 73.7-55.8-77.6-3.2z"></path>
        <path fill="url(#44556fdd-bcc5-46e7-9bdc-1be8c23ca3b8_comp-m8939kpa)" d="m866.5 425.3 46 53.5 5.8-8.1-42.9-49.9z"></path>
        <path fill="url(#c11bb076-b836-43ca-be68-9909fc581485_comp-m8939kpa)" d="m875.4 420.8 42.9 49.9 7.6-10.7-38.8-45.1z"></path>
        <path d="m1106.7 255.7-75 8.1q-2.1.45-4.2 1.2v.3c2.3 9.8 6.9 23.3 16.4 37 2.8 4 7.6 10.5 14.9 17.3 5.4 5.1 16.5 15.3 34.2 21.7.9.3 1.8.6 2.8.9q.75-1.35 1.2-2.7l19.2-73c1.6-5.9-3.3-11.6-9.4-10.9Z" fill="#fcd118"></path>
        <path d="M1058.8 319.7c-7.3-6.8-12.1-13.3-14.9-17.3-9.5-13.8-14.1-27.2-16.4-37v-.3q-4.05 1.65-7.5 4.5L871.7 397.2l69.4 80.7 148.3-127.6c2.6-2.2 4.7-4.9 6.2-7.9-1-.3-1.9-.6-2.8-.9-17.7-6.4-28.8-16.7-34.2-21.7Z" fill="url(#97aa320a-2110-4d28-a0a3-da63efec5091_comp-m8939kpa)"></path>
        <path fill="url(#2366b94e-d6e6-4936-b95a-4a0c922feb68_comp-m8939kpa)" d="m957.8 521.2 58.2-50.1 7-63.7-64.8 55.8z"></path>
        <path d="M994.8 326c-11.3 9.7-12.5 26.7-2.8 37.9 9.7 11.3 26.7 12.5 37.9 2.8s12.5-26.7 2.8-37.9c-9.7-11.3-26.7-12.5-37.9-2.8" fill="url(#02650926-cb7d-4c43-bacf-4a32d009c7ff_comp-m8939kpa)"></path>
        <path d="M998.6 330.4c-8.8 7.6-9.8 20.9-2.2 29.7s20.9 9.8 29.7 2.2 9.8-20.9 2.2-29.7-20.9-9.8-29.7-2.2" fill="#ffffff"></path>
        <path transform="rotate(-22.1 947.4 403.766)" fill="url(#9a4d8905-aef5-4c17-b80a-e777bfdb34f4_comp-m8939kpa)" d="M966.7 403.5c0 11.432-9.268 20.7-20.7 20.7s-20.7-9.268-20.7-20.7 9.268-20.7 20.7-20.7 20.7 9.268 20.7 20.7"></path>
        <path d="M935.4 391.1c-6.8 5.9-7.6 16.2-1.7 23s16.2 7.6 23 1.7 7.6-16.2 1.7-23-16.2-7.6-23-1.7" fill="#ffffff"></path>
        <path fill="url(#7aaf2771-a2b3-4a87-bcca-1ce145dec862_comp-m8939kpa)" d="M568.9 884.6v46.1a2.8 2.8 0 0 1-2.8 2.8H520a2.8 2.8 0 0 1-2.8-2.8v-46.1a2.8 2.8 0 0 1 2.8-2.8h46.1a2.8 2.8 0 0 1 2.8 2.8"></path>
        <path d="M626.2 891.3h-29.6c-2.4 0-4.3 1.9-4.3 4.3s1.9 4.3 4.3 4.3h29.6c2.4 0 4.3-1.9 4.3-4.3s-1.9-4.3-4.3-4.3" fill="url(#6f287d7f-bcc4-4765-b4e7-ebd1d9be3d9e_comp-m8939kpa)"></path>
        <path d="M817.9 891.3H650.1c-2.4 0-4.3 1.9-4.3 4.3s1.9 4.3 4.3 4.3h167.8c2.4 0 4.3-1.9 4.3-4.3s-1.9-4.3-4.3-4.3" fill="url(#5fd0fad0-3efc-4cba-bf03-ef9ff2d2cf18_comp-m8939kpa)"></path>
        <path d="M742.4 915.4H596.6c-2.4 0-4.3 1.9-4.3 4.3s1.9 4.3 4.3 4.3h145.8c2.4 0 4.3-1.9 4.3-4.3s-1.9-4.3-4.3-4.3" fill="url(#a69b9412-3311-442f-a8e3-6b2da594d5d6_comp-m8939kpa)"></path>
        <path d="M817.9 915.4h-51.5c-2.4 0-4.3 1.9-4.3 4.3s1.9 4.3 4.3 4.3h51.5c2.4 0 4.3-1.9 4.3-4.3s-1.9-4.3-4.3-4.3" fill="url(#c2c473be-ca48-49af-af2c-244500d1e2c8_comp-m8939kpa)"></path>
        <path d="M872.9 998.7h-55.8c-4.1 0-7.5 3.4-7.5 7.5s3.4 7.5 7.5 7.5h55.8c4.1 0 7.5-3.4 7.5-7.5s-3.4-7.5-7.5-7.5" fill="#ffffff"></path>
        <path d="M530.7 310.3 100 311.9v351.4l325.4-1.2 68.2-.3H532c26-.2 47.1-21.4 47-47.5l-1-257.1c0-26-21.3-47.1-47.3-47Z" fill="url(#82003e85-5ec9-4c01-8f0f-795325700a0c_comp-m8939kpa)"></path>
        <path d="M77.6 312c-2.5 0-4.9.2-7.3.6.7 1.1-12.3 3.8-12.3 3.8-16.2 7.5-27.4 23.9-27.3 43l.4 97.6H10c-5.5 0-10 4-10 8.9l.2 45c0 4.9 4.5 8.8 10.1 8.8h21l.4 96.8c0 19 11.4 35.4 27.7 42.7l12.4 3.7c2.4.4 4.8.5 7.3.5h21.2V311.9H77.9Z" fill="url(#6abb672f-c342-4656-a1bd-8abf6d08aa0d_comp-m8939kpa)"></path>
        <path d="M65.8 611.4c-3.7 0-6.7 3-6.7 6.7l.2 41c3.9 1.8 8 3 12.4 3.7.7-1.1 1.1-2.3 1.1-3.7l-.2-41.1c0-3.7-3-6.7-6.7-6.7Z" fill="#ffffff"></path>
        <path d="M70.3 312.6c-4.3.7-8.5 2-12.3 3.8l.2 41c0 3.7 3 6.7 6.7 6.7h.2c3.6-.1 6.5-3.1 6.5-6.7l-.2-41.1c0-1.4-.4-2.6-1.1-3.7" fill="#ffffff"></path>
        <path d="M160.7 631h-18.9v-18.8c0-3.6-2.9-6.5-6.5-6.5s-6.5 2.9-6.5 6.5v25.4c.1 1.7.8 3.4 2 4.6s2.9 1.9 4.6 1.9h25.4c3.6-.1 6.5-3 6.5-6.6s-2.9-6.5-6.5-6.5Z" fill="#ffffff"></path>
        <path d="M542.4 329.4H517c-3.6.1-6.5 3-6.5 6.6s2.9 6.5 6.5 6.5h18.9v18.8c0 3.6 2.9 6.5 6.5 6.5s6.5-2.9 6.5-6.5v-25.4c-.1-3.6-3-6.5-6.6-6.5Z" fill="#ffffff"></path>
        <path d="M159.6 330.8h-25.4c-1.7.1-3.4.8-4.6 2s-1.9 2.9-1.9 4.6v25.4c.1 3.6 3 6.5 6.6 6.5s6.5-2.9 6.5-6.5v-18.9h18.8c3.6 0 6.5-2.9 6.5-6.5s-2.9-6.5-6.5-6.5Z" fill="#ffffff"></path>
        <path d="M543.5 604.2c-3.6 0-6.5 2.9-6.5 6.5v18.9h-18.8c-3.6 0-6.5 2.9-6.5 6.5s2.9 6.5 6.5 6.5h25.4c3.6-.1 6.5-3 6.5-6.6v-25.4c-.1-3.6-3-6.5-6.6-6.5Z" fill="#ffffff"></path>
        <path d="M368.2 428.1c-2.4-1.3-5.5-.3-6.8 2.1l-9 17.1c-1.3 2.4-.3 5.5 2.1 6.8.7.4 1.5.6 2.3.6 1.8 0 3.5-1 4.4-2.7l9-17.1c1.3-2.4.3-5.5-2.1-6.8Z" fill="#939598"></path>
        <path d="M229.7 702c-7.6-3.7-14.7-6-20.5-7.4l-.8-.9-9.1 18.1.2.2c5.8 1.4 12.8 3.7 20.5 7.4 8.7 4.2 15.5 9.1 20.4 13.2h.3l9.2-18.3-.9-.2c-5-4.1-10.6-8-19.3-12.2Z" fill="url(#73bb85e5-319f-4233-8bce-83f79d18eccf_comp-m8939kpa)"></path>
        <path d="m353.7 445.2-28 23c-3.4 2.6-6.3 5.8-8.3 9.6h.3c5.8 1.4 12.8 3.7 20.5 7.4 8.7 4.2 15.5 9.1 20.4 13.2l.2.2c1.8-3.9 2.7-8.1 2.8-12.3l1.8-36.2c0-5-5.6-7.8-9.6-4.9Z" fill="#bcbec0"></path>
        <path d="M219.9 719.5c-7.6-3.7-14.7-6-20.5-7.4l-.2-.2-11.8 23.3c-3.2 6.4-.6 14.1 5.7 17.3l18.4 9.3c6.4 3.2 14.1.6 17.3-5.7l11.8-23.3h-.3c-5-4.1-11.8-9-20.4-13.2Z" fill="#bcbec0"></path>
        <path d="M338.2 485.1c-7.6-3.7-14.7-6-20.5-7.4h-.3c-.2.3-.3.6-.4.9l-60.2 119.3.4.2c5.8 1.4 12.8 3.7 20.5 7.4 8.7 4.2 15.5 9.1 20.4 13.2s60.1-119.2 60.1-119.2c.1-.3.3-.6.4-.9l-.2-.2c-5-4.1-11.8-8.9-20.4-13.2Z" fill="url(#aa3f7dbb-3d62-4f7e-9bda-9299d5df1c05_comp-m8939kpa)"></path>
        <path d="M277.7 605.4c-7.6-3.7-14.7-6-20.5-7.4l-.4-.2-48.4 95.9.8.9c5.8 1.4 12.8 3.7 20.5 7.4 8.7 4.2 14.3 8.1 19.3 12.2l.9.2 48.3-95.8c-5-4.2-11.8-9-20.4-13.2Z" fill="#bcbec0"></path>
        <path d="M330.6 505c-3.2-1.6-7.1-.3-8.7 2.9l-32.8 65c-1.6 3.2-.3 7.1 2.9 8.7.9.5 1.9.7 2.9.7 2.4 0 4.7-1.3 5.8-3.6l32.8-65c1.6-3.2.3-7.1-2.9-8.7" fill="#ffffff"></path>
        <path fill="url(#d3a9f8aa-e9a8-4c4b-b0c2-e43337f0666d_comp-m8939kpa)" d="M1299.4 219.8c0 42.913-34.787 77.7-77.7 77.7s-77.7-34.787-77.7-77.7 34.787-77.7 77.7-77.7 77.7 34.787 77.7 77.7"></path>
        <path transform="rotate(-45 214.915 112.78)" fill="url(#d6e772e4-39bb-4373-9134-83af4ba8a115_comp-m8939kpa)" d="M249.6 112.8c0 19.164-15.536 34.7-34.7 34.7s-34.7-15.536-34.7-34.7 15.536-34.7 34.7-34.7 34.7 15.536 34.7 34.7"></path>
        <path d="M1215.7 554.9h-29.1V546c0-5.9-5.6-10.8-12.4-10.8h-55.6c-6.9 0-12.4 4.8-12.4 10.8v14.4l115.7 6.1v-6.4c0-2.9-2.7-5.2-6-5.2Z" fill="url(#1421dd2b-2afb-4e21-b4c9-1228308ac084_comp-m8939kpa)"></path>
        <path d="M1118.7 560.1v-8.9c0-5.9-5.4-10.8-12-10.8H1053c-6.6 0-12 4.8-12 10.8v423.4h189.8V567.9c0-2.6-.3-5.2-.7-7.7h-111.3Z" fill="url(#3e52bc4c-2b5f-4465-b23f-fe0d5db7ea9e_comp-m8939kpa)"></path>
        <path fill="url(#c7d03408-12e3-4537-b7eb-f538c793c6c2_comp-m8939kpa)" d="M1204 761.7v212.9h-136.3V761.7z"></path>
        <path fill="url(#1e4c39b9-9995-4e67-9790-b3bbdaad53dd_comp-m8939kpa)" d="M1202.7 701.75c0 3.452-2.82 6.25-6.3 6.25H1074c-3.48 0-6.3-2.798-6.3-6.25s2.82-6.25 6.3-6.25h122.4c3.48 0 6.3 2.798 6.3 6.25"></path>
        <path d="M1196.5 723.1H1074c-3.5 0-6.3 2.8-6.3 6.3s2.8 6.3 6.3 6.3h122.5c3.5 0 6.3-2.8 6.3-6.3s-2.8-6.3-6.3-6.3" fill="url(#1fd31dfa-dd3c-4e27-bb7c-4f6c538661f5_comp-m8939kpa)"></path>
        <path d="M1201 605.7h-82.1c-1.6 0-3 1.3-3 3s1.3 3 3 3h82.1c1.6 0 3-1.3 3-3s-1.3-3-3-3" fill="#9d9e9f"></path>
        <path d="M1201 630.2h-130.3c-1.6 0-3 1.3-3 3s1.3 3 3 3H1201c1.6 0 3-1.3 3-3s-1.3-3-3-3" fill="#9d9e9f"></path>
        <path d="M1201 654.8h-130.3c-1.6 0-3 1.3-3 3s1.3 3 3 3H1201c1.6 0 3-1.3 3-3s-1.3-3-3-3" fill="#9d9e9f"></path>
        <path d="M1134.7 599.6c-1.7 0-3.1 1.4-3.1 3.1v11.9c0 1.7 1.4 3.1 3.1 3.1s3.1-1.4 3.1-3.1v-11.9c0-1.7-1.4-3.1-3.1-3.1" fill="#9d9e9f"></path>
        <path d="M1108.4 648.7c-1.7 0-3.1 1.4-3.1 3.1v11.9c0 1.7 1.4 3.1 3.1 3.1s3.1-1.4 3.1-3.1v-11.9c0-1.7-1.4-3.1-3.1-3.1" fill="#9d9e9f"></path>
        <path d="M1135.8 624.1c-1.7 0-3.1 1.4-3.1 3.1v11.9c0 1.7 1.4 3.1 3.1 3.1s3.1-1.4 3.1-3.1v-11.9c0-1.7-1.4-3.1-3.1-3.1" fill="#9d9e9f"></path>
        <path fill="url(#64dfa0c2-1d73-40cb-95e4-7b43f73f23dd_comp-m8939kpa)" d="M1109.1 576.4v41.4h-41.4v-41.4z"></path>
        <path fill="#ffffff" d="m1164.2 865.7-56.4-15.1 15.1 56.4 14-13.9 17.6 17.5 13.3-13.3-17.5-17.6z"></path>
        <path d="M669.8 3.6C635-1 599.9-1.1 565.2 2.7c1.9 16.2 0 31.7-4.9 46.1 1.1 3.3 2.4 6.5 4.1 9.7 11.8 22.3 35.6 37.3 59.4 43.9 29.6 8.1 61.5 6.4 91.6 2.8 25.9-3.1 52-10.2 75.7-21.7 13.4-6.5 26.1-14.4 37.6-23.8-6.8-4.1-13.8-8.1-20.9-11.8-42.9-22.6-89.9-37.8-138.1-44.2Z" fill="url(#96a249f5-379b-4e1f-ba4c-2061c9d44193_comp-m8939kpa)"></path>
        <path d="M828.8 59.6c-11.5 9.4-24.2 17.3-37.6 23.8-.3 1.6-.5 3.3-.6 4.9-3.2 59 75.6 80.4 121.5 77.4 10-.7 19.3-2.6 28.3-5.3-29.8-40.4-68.1-74.6-111.7-100.9Z" fill="url(#efde5082-a9e7-46dd-9303-f8999e99f195_comp-m8939kpa)"></path>
        <path d="M1367 432.3c10.1 53.5 35.2 104.1 71.8 144.4 8 8.8 16.6 17.2 26.6 23.6-.6-3.8-.9-7.6-1-11.5-.2-21.7 10.4-43.1 27-56.9-33.3-41.6-76.3-75.9-124.5-99.6Z" fill="url(#6c1c1893-2632-4017-9e6c-1d197fff350a_comp-m8939kpa)"></path>
        <path d="M556.5 3.8c-85 11.1-167.1 46.1-234.1 98.8-34.5 27.1-68.2 62.2-97.7 102.2 13.4 7.9 28.4 13 43.8 13.3 19.4.5 38.6-6.5 54.4-17.8 31.2-22.2 43.5-73.6 87.5-75.6 9.2-.4 18.4 1 27.6 1.9 53.8 5.4 105.7-28.9 122.4-77.8 4.9-14.3 6.8-29.9 4.9-46.1-2.9.3-5.8.7-8.7 1.1Z" fill="url(#2fea4ff9-6ccc-4c11-8f6a-af9db740f4e0_comp-m8939kpa)"></path>
        <path d="M1548.9 637.9c-3.5-11.1-7.7-22-12.5-32.6-11.7-26.2-26.9-50.9-45-73.4-16.7 13.9-27.2 35.2-27 56.9 0 3.9.4 7.7 1 11.5 2.7 18 10.7 35.1 16.3 52.7 6.7 21.2 9.4 46.2-3.9 64.1-4.8 6.4-11.2 11.3-17.1 16.8-25.9 24.4-39.1 60.3-41 95.8-1.9 35.6 6.5 71 18.5 104.5 1.8 5.1 3.8 10.2 5.9 15.2 48.9-27.7 86.1-74.3 104.7-126.8 13.1-37.1 17.3-76.8 13.9-116-2-23.3-6.7-46.4-13.8-68.8Z" fill="url(#ac13ce54-040d-4042-b075-dc30b14c7961_comp-m8939kpa)"></path>
        <path d="M746.3 1139.8c-9.8 4.2-16 15.4-27.4 16s-17.4-8.3-25.1-14.9c-23.7-20-48.6-8.6-63.2 12 24.2 14.7 45.1 35.4 59.6 59.5 39.9-10.5 78.1-27.5 112-50.4-6.4-6.6-13.5-12.4-21.4-17.1-10.1-6-23.1-10-34.5-5.1" fill="url(#82fc550d-cb59-4761-8a8f-ed4897fb0f5a_comp-m8939kpa)"></path>
        <path d="M563.8 1129.7c-24.4-2.6-48.1 1.1-72 5-26 4.2-54.2 7.2-77.1-8.6-15.2-10.4-26.7-25-39.5-38.1-20.6-21.1-48-34.9-75.5-31.2 32.9 57.3 82.7 105.6 143 134.7 55.9 26.9 118.9 37.2 180.8 32.3-3.5-10.5-5.6-21.5-5.7-32.1-.1-13.2 4.8-27.3 12.9-38.7-20.5-12.5-43.4-20.7-66.8-23.2Z" fill="url(#1111fbfc-9eb6-4632-85c3-653a95dd853e_comp-m8939kpa)"></path>
        <path d="M630.5 1152.9c-8.1 11.4-13 25.5-12.9 38.7 0 10.7 2.2 21.7 5.7 32.1 22.5-1.8 44.9-5.6 66.8-11.3-14.5-24.2-35.4-44.8-59.6-59.5" fill="url(#c222525c-b42f-4905-ad23-822216cb6092_comp-m8939kpa)"></path>
    </g>
</svg>