<svg preserveAspectRatio="xMidYMid meet" data-bbox="-0.001 -0.185 1585.733 1305.344" viewBox="0 0 1585.8 1305.2" xmlns:xlink="http://www.w3.org/1999/xlink" xmlns="http://www.w3.org/2000/svg" data-type="ugc" role="presentation" aria-hidden="true" aria-label="">
    <g>
        <defs>
            <linearGradient gradientUnits="userSpaceOnUse" gradientTransform="rotate(92.5 -3030.677 -474.879)" y2="-3488.3" x2="-2248.5" y1="-4385" x1="-953.9" id="6ce03711-5f09-452c-94c5-44ecdb28e7dc_comp-m88xijrk">
                <stop stop-color="#582d7f" offset="0"></stop>
                <stop stop-color="#572e80" offset=".4"></stop>
                <stop stop-color="#543584" offset=".6"></stop>
                <stop stop-color="#50418b" offset=".7"></stop>
                <stop stop-color="#495295" offset=".8"></stop>
                <stop stop-color="#4168a2" offset=".8"></stop>
                <stop stop-color="#3783b2" offset=".9"></stop>
                <stop stop-color="#2ba2c5" offset=".9"></stop>
                <stop stop-color="#1dc7da" offset="1"></stop>
                <stop stop-color="#1dc9dc" offset="1"></stop>
            </linearGradient>
            <linearGradient gradientUnits="userSpaceOnUse" y2="1347.8" x2="-90.4" y1="-17.7" x1="1763.6" id="a989620e-ff2a-41bc-81c1-252ab56e9811_comp-m88xijrk">
                <stop stop-color="#582d7f" offset="0"></stop>
                <stop stop-color="#533986" offset=".2"></stop>
                <stop stop-color="#475999" offset=".4"></stop>
                <stop stop-color="#338eb8" offset=".7"></stop>
                <stop stop-color="#1dc9dc" offset="1"></stop>
            </linearGradient>
            <linearGradient gradientUnits="userSpaceOnUse" y2="1129.4" x2="1094.3" y1="1352.4" x1="289.8" id="29363bd6-36a0-4f4f-94db-3c842a73c97c_comp-m88xijrk">
                <stop stop-color="#582d7f" offset="0"></stop>
                <stop stop-color="#563181" offset=".2"></stop>
                <stop stop-color="#513e89" offset=".3"></stop>
                <stop stop-color="#495395" offset=".5"></stop>
                <stop stop-color="#3e71a7" offset=".6"></stop>
                <stop stop-color="#2f97be" offset=".8"></stop>
                <stop stop-color="#1ec6da" offset="1"></stop>
                <stop stop-color="#1dc9dc" offset="1"></stop>
            </linearGradient>
            <linearGradient gradientUnits="userSpaceOnUse" y2="-99.1" x2="253.9" y1="161.2" x1="1084" id="c10f469c-fe57-44d3-a090-818c31b71c37_comp-m88xijrk">
                <stop stop-color="#582d7f" offset=".2"></stop>
                <stop stop-color="#495295" offset=".4"></stop>
                <stop stop-color="#25b1cd" offset=".9"></stop>
                <stop stop-color="#1dc9dc" offset="1"></stop>
            </linearGradient>
            <linearGradient xlink:href="#29363bd6-36a0-4f4f-94db-3c842a73c97c_comp-m88xijrk" y2="99.5" x2="420.5" y1="201.1" x1="53.8" id="824cfd3b-3ccf-47ad-a1e5-a720fc5a1c23_comp-m88xijrk"></linearGradient>
            <linearGradient xlink:href="#29363bd6-36a0-4f4f-94db-3c842a73c97c_comp-m88xijrk" y2="276.7" x2="264.1" y1="361.5" x1="-41.6" id="87b82027-2c18-4e69-a0d0-01e9691e7a06_comp-m88xijrk"></linearGradient>
            <linearGradient gradientUnits="userSpaceOnUse" y2="1138.2" x2="-25.5" y1="1044.6" x1="225.3" id="536d4b3e-9e66-4a33-aa13-ee76e3a8b727_comp-m88xijrk">
                <stop stop-color="#582d7f" offset=".1"></stop>
                <stop stop-color="#572d7f" offset=".1"></stop>
                <stop stop-color="#2d9cc1" offset=".7"></stop>
                <stop stop-color="#1dc9dc" offset="1"></stop>
            </linearGradient>
            <linearGradient xlink:href="#a989620e-ff2a-41bc-81c1-252ab56e9811_comp-m88xijrk" y2="1292" x2="1190.2" y1="1078.7" x1="1479.7" id="a65ac546-27ec-4e33-b157-953337577363_comp-m88xijrk"></linearGradient>
            <linearGradient gradientUnits="userSpaceOnUse" y2="373" x2="1439.8" y1="425.8" x1="1608.2" id="b332761a-82a2-4840-8bf6-fa9f9ecadc9d_comp-m88xijrk">
                <stop stop-color="#582d7f" offset="0"></stop>
                <stop stop-color="#495295" offset=".3"></stop>
                <stop stop-color="#25b1cd" offset=".9"></stop>
                <stop stop-color="#1dc9dc" offset="1"></stop>
            </linearGradient>
            <linearGradient gradientUnits="userSpaceOnUse" y2="998.7" x2="722.5" y1="1208.3" x1="722.5" id="5ead9859-30a4-4006-8112-db8afa921faa_comp-m88xijrk">
                <stop stop-color="#9d9e9f" offset="0"></stop>
                <stop stop-color="#d1d3d4" offset="1"></stop>
            </linearGradient>
            <linearGradient gradientUnits="userSpaceOnUse" y2="370.3" x2="722.5" y1="1146.3" x1="722.5" id="b60ae3d2-0a7f-45de-be6a-2dcc562d70ef_comp-m88xijrk">
                <stop stop-color="#fcde8a" offset="0"></stop>
                <stop stop-color="#f38381" offset="1"></stop>
            </linearGradient>
            <linearGradient gradientUnits="userSpaceOnUse" y2="708.2" x2="777.6" y1="494.4" x1="563.8" id="7595aaee-a4e4-4bb7-a335-a18f83382536_comp-m88xijrk">
                <stop stop-color="#f1f2f2" offset="0"></stop>
                <stop stop-color="#ffffff" offset="1"></stop>
            </linearGradient>
            <linearGradient gradientUnits="userSpaceOnUse" gradientTransform="translate(437.6)" y2="348.9" x2="478.1" y1="348.9" x1="437.9" id="a1977e1f-69ff-4b69-9bff-fc6d90924b5f_comp-m88xijrk">
                <stop stop-color="#42e397" offset="0"></stop>
                <stop stop-color="#3cb6b5" offset="1"></stop>
            </linearGradient>
            <linearGradient xlink:href="#a1977e1f-69ff-4b69-9bff-fc6d90924b5f_comp-m88xijrk" gradientTransform="matrix(-1 0 0 1 -4721.8 0)" y2="828.9" x2="-5858.8" y1="802.4" x1="-5021" id="0eef9799-a87a-463f-b6ab-31259505201e_comp-m88xijrk"></linearGradient>
            <linearGradient xlink:href="#a1977e1f-69ff-4b69-9bff-fc6d90924b5f_comp-m88xijrk" gradientTransform="matrix(-1 0 0 1 -4721.8 0)" y2="795.9" x2="-5860.8" y1="769.4" x1="-5022.9" id="5b23f702-3b06-4e3f-bd9a-5192233030d4_comp-m88xijrk"></linearGradient>
            <linearGradient xlink:href="#a1977e1f-69ff-4b69-9bff-fc6d90924b5f_comp-m88xijrk" gradientTransform="matrix(-1 0 0 1 -4721.8 0)" y2="742" x2="-5863.4" y1="715.5" x1="-5025.5" id="b7870199-3c0e-4c63-a276-2f904d8b191b_comp-m88xijrk"></linearGradient>
            <linearGradient xlink:href="#a1977e1f-69ff-4b69-9bff-fc6d90924b5f_comp-m88xijrk" gradientTransform="matrix(-1 0 0 1 -4721.8 0)" y2="697.8" x2="-5863" y1="671.3" x1="-5025.1" id="b452d8e3-69db-463c-84ca-b17e93321400_comp-m88xijrk"></linearGradient>
            <linearGradient gradientUnits="userSpaceOnUse" y2="992" x2="1453" y1="992" x1="1020.3" id="a86801f3-24e9-4fcd-9ff2-64b04d6098b9_comp-m88xijrk">
                <stop stop-color="#ffde39" offset="0"></stop>
                <stop stop-color="#fec63c" offset="0"></stop>
                <stop stop-color="#fe9843" offset=".3"></stop>
                <stop stop-color="#fe7d4b" offset=".4"></stop>
                <stop stop-color="#fe4f59" offset=".7"></stop>
                <stop stop-color="#ed327f" offset="1"></stop>
            </linearGradient>
            <linearGradient xlink:href="#a86801f3-24e9-4fcd-9ff2-64b04d6098b9_comp-m88xijrk" y2="1065.6" x2="1320.4" y1="1065.6" x1="1232.5" id="ea333a91-698e-4997-84e9-111991daa688_comp-m88xijrk"></linearGradient>
            <linearGradient xlink:href="#a1977e1f-69ff-4b69-9bff-fc6d90924b5f_comp-m88xijrk" y2="1086" x2="1278.6" y1="1085.7" x1="1199.5" id="4ee34dfa-5e6d-4a10-971e-8323f438d792_comp-m88xijrk"></linearGradient>
            <linearGradient xlink:href="#a1977e1f-69ff-4b69-9bff-fc6d90924b5f_comp-m88xijrk" gradientTransform="matrix(.78394 .1595 .14615 .84612 -230.1 230.1)" y2="-370.2" x2="1009.2" y1="11.2" x1="631.5" id="7e202c58-fb6d-4e94-ac82-54c8d221a041_comp-m88xijrk"></linearGradient>
            <linearGradient xlink:href="#a1977e1f-69ff-4b69-9bff-fc6d90924b5f_comp-m88xijrk" y2="-58.2" x2="832.7" y1="313.1" x1="459.1" id="0d23e7c5-7471-4bf7-8737-a13bfc1ee86b_comp-m88xijrk"></linearGradient>
            <linearGradient xlink:href="#a1977e1f-69ff-4b69-9bff-fc6d90924b5f_comp-m88xijrk" gradientTransform="translate(4617.6 -1958.3)" y2="2220.6" x2="-4194" y1="2088.9" x1="-4015.2" id="7394f618-1179-4cf8-b425-f75a463d825f_comp-m88xijrk"></linearGradient>
        </defs>
        <path fill="url(#6ce03711-5f09-452c-94c5-44ecdb28e7dc_comp-m88xijrk)" d="M160.1 673.6c0 36.396-29.37 65.9-65.6 65.9s-65.6-29.504-65.6-65.9 29.37-65.9 65.6-65.9 65.6 29.504 65.6 65.9"></path>
        <path d="M1556.7 459.1c-12.8 15.1-23.9 32.6-33.6 52.3-70.8 143.9 22.1 407-10.8 588.9-19.6 108.2-140.2 182.2-211.1 200-19.7 5-38.6 5.9-57.4 3.8-112.9-12.6-225.7-135.5-532.6-173.3-141.9-17.5-210.4-2.6-255.5 12.6-98.7 33.2-141.5 86.7-184.5 114.4-5.9 3.8-11.8 7.1-17.8 9.8-14.2 6.4-29.3 9.4-47 7.7-7.9-.8-15.8-2.5-23.7-5-54.3-17.3-107.2-73.7-142-142.2C3.5 1054.7-13 967.3 11.8 898.7c1.2-3.2 2.4-6.4 3.7-9.4.1-.3.3-.7.4-1C62 782.6 191 780.9 200.3 691.6c8.7-83.3-98.7-128.7-153.2-205.7-14.7-20.8-25.6-43.8-29.3-70.6-9.6-69.6 32.3-141.6 90.7-203.8 19.1-20.3 39.9-39.6 61.3-57.4 41.5-34.6 85.1-63.7 121.7-84 11.7-6.5 24-12.5 37-17.9 32.9-13.8 69.8-24.4 109.7-32C543.4.1 669.4.9 798.7 16.7 855 23.6 912 33.3 968.1 45.4c72.2 15.5 159.3 117.3 225.8 139.6 152.2 51 271.9-16.1 341.3 52.7 57.8 57.3 67.5 167.3 21.4 221.4Z" fill="url(#a989620e-ff2a-41bc-81c1-252ab56e9811_comp-m88xijrk)"></path>
        <path d="M370.4 1232.1c-2-32.8 176.2-88.6 346.5-66 125.1 16.6 269 78.4 262.9 108-11.9 58.1-605.9 17.2-609.4-42" fill="url(#29363bd6-36a0-4f4f-94db-3c842a73c97c_comp-m88xijrk)"></path>
        <path d="M968.1 45.4c-51.5 12.7-111.8 23.7-173.5 30.4-131.1 14.1-268.5 8.6-341.3-42.7-7.3-5.1-12.1-9.4-15.1-13.1C543.4.1 669.4.9 798.7 16.7 855 23.6 912 33.3 968.1 45.4" fill="url(#c10f469c-fe57-44d3-a090-818c31b71c37_comp-m88xijrk)"></path>
        <path d="M346.1 136.9c-15.7 61.3-90.8 86.8-137.4 90.7-6.4.5-13 .7-19.7.6-27.8-.6-56.9-6.8-80.4-16.8 19.1-20.3 39.9-39.6 61.3-57.4 41.5-34.6 85.1-63.7 121.7-84 11.7-6.5 24-12.5 37-17.9 22.1 21 24 59.5 17.5 84.9Z" fill="url(#824cfd3b-3ccf-47ad-a1e5-a720fc5a1c23_comp-m88xijrk)"></path>
        <path d="M190.7 258.3c-.7 112.4-84.1 202.1-143.6 227.4-14.7-20.8-25.6-43.8-29.3-70.6-9.6-69.6 32.3-141.6 90.7-203.8 19.1-20.3 39.9-39.6 61.3-57.4 9.2 23 16.1 48.4 19.1 74.2 1.2 10 1.8 20.1 1.7 30.2Z" fill="url(#87b82027-2c18-4e69-a0d0-01e9691e7a06_comp-m88xijrk)"></path>
        <path d="M255.5 1261.5c-.6 2.1-1.3 4.2-2 6.1-14.2 6.4-29.3 9.4-47 7.7-7.9-.8-15.8-2.5-23.7-5-54.3-17.3-107.2-73.7-142-142.2-37.2-73.4-53.7-160.8-28.9-229.4 1.2-3.2 2.4-6.4 3.7-9.4 64 35.4 135.5 89.8 180.3 149.9 59.1 79.4 74.2 172.6 59.7 222.4Z" fill="url(#536d4b3e-9e66-4a33-aa13-ee76e3a8b727_comp-m88xijrk)"></path>
        <path d="M1424.9 1092c-19.6 108.2-52.7 190.5-123.6 208.3-19.7 5-38.6 5.9-57.4 3.8-9.3-14.8-15.2-30.6-16.7-47.2-7.8-85 98.3-195.7 167.8-181.9 11.2 2.2 20.4 7.5 29.9 16.9Z" fill="url(#a65ac546-27ec-4e33-b157-953337577363_comp-m88xijrk)"></path>
        <path d="M1556.7 459.1c-12.8 15.1-23.9 32.6-33.6 52.3-51-26-46.2-201.5 5.4-222.9 57.8 57.3 74.3 116.5 28.2 170.6" fill="url(#b332761a-82a2-4840-8bf6-fa9f9ecadc9d_comp-m88xijrk)"></path>
        <path d="M1235.3 1012.2V448.3c0-30.1-24.4-54.5-54.5-54.5H264.3c-30.1 0-54.5 24.4-54.5 54.5v590.3h1025.6v-26.4Zm-68.3-34.4H278V470.9h889z" fill="url(#5ead9859-30a4-4006-8112-db8afa921faa_comp-m88xijrk)"></path>
        <path d="M1253.2 1099.8H191.8c-31.8 0-59.1-22.6-64.9-53.8-2.4-12.5 7.2-24 19.9-24h1151.5c12.7 0 22.3 11.6 19.9 24-5.9 31.2-33.2 53.8-64.9 53.8Z" fill="#e1e1e5"></path>
        <path d="M871.3 1055.7H573.7c-5.9 0-10.6-4.8-10.6-10.6v-23.2h318.8v23.2c0 5.9-4.8 10.6-10.6 10.6" fill="#ffffff"></path>
        <path fill="url(#b60ae3d2-0a7f-45de-be6a-2dcc562d70ef_comp-m88xijrk)" d="M1167 470.9v506.9H278V470.9z"></path>
        <path d="M316.4 977.8V405c0-18.5 15.4-33.5 34.5-33.5h500l6.2-41.9c1.8-12.3 12.6-21.4 25.4-21.4h215.2c14.2 0 25.7 11.1 25.7 24.9v644.6h-807Z" fill="url(#7595aaee-a4e4-4bb7-a335-a18f83382536_comp-m88xijrk)"></path>
        <path fill="url(#a1977e1f-69ff-4b69-9bff-fc6d90924b5f_comp-m88xijrk)" d="M915.7 348.9c0 10.77-9 19.5-20.1 19.5s-20.1-8.73-20.1-19.5 9-19.5 20.1-19.5 20.1 8.73 20.1 19.5"></path>
        <path d="M959.5 343.6h-19.6c-4 0-7.3-3.2-7.3-7.1s3.3-7.1 7.3-7.1h19.6c4 0 7.3 3.2 7.3 7.1s-3.3 7.1-7.3 7.1" fill="#d1d3d4"></path>
        <path d="M1083.4 343.6h-99.7c-4 0-7.3-3.2-7.3-7.1s3.3-7.1 7.3-7.1h99.7c4 0 7.3 3.2 7.3 7.1s-3.3 7.1-7.3 7.1" fill="#d1d3d4"></path>
        <path d="M1076.9 369.6H944.7c-6.7 0-12.1-3.2-12.1-7.1s5.4-7.1 12.1-7.1h132.2c6.7 0 12.1 3.2 12.1 7.1s-5.4 7.1-12.1 7.1" fill="#d1d3d4"></path>
        <path fill="#d1d3d4" d="M1065.3 451.7V919H374.4V451.7z"></path>
        <path fill="#ffffff" d="M1047.3 470.7v429.2h-655V470.7z"></path>
        <path d="M442 899.9V727.6c0-5.9 3.2-10.6 7.2-10.6h91c4 0 7.2 4.8 7.2 10.6v172.3H442.1Z" fill="url(#0eef9799-a87a-463f-b6ab-31259505201e_comp-m88xijrk)"></path>
        <path d="M592.1 899.9V671c0-5.9 3.2-10.6 7.2-10.6h91c4 0 7.2 4.8 7.2 10.6v228.9H592.2Z" fill="url(#5b23f702-3b06-4e3f-bd9a-5192233030d4_comp-m88xijrk)"></path>
        <path d="M742.3 899.9V572.6c0-5.9 3.2-10.6 7.2-10.6h91c4 0 7.2 4.8 7.2 10.6v327.3H742.4Z" fill="url(#b7870199-3c0e-4c63-a276-2f904d8b191b_comp-m88xijrk)"></path>
        <path d="M892.4 899.9V496.1c0-7.2 3.2-13.1 7.2-13.1h91c4 0 7.2 5.9 7.2 13.1v403.8H892.5Z" fill="url(#b452d8e3-69db-463c-84ca-b17e93321400_comp-m88xijrk)"></path>
        <path fill="#767777" d="M1256.1 831.9v30.6h-33.5v-30.6z"></path>
        <path fill="#b2b6b7" d="M1284.7 809.2v20.7a2 2 0 0 1-2 2H1196a2 2 0 0 1-2-2v-20.7a2 2 0 0 1 2-2h86.7a2 2 0 0 1 2 2"></path>
        <path d="M1236.6 855.5C1101.5 855.5 992 965 992 1100.1h489.2c0-135.1-109.5-244.6-244.6-244.6" fill="#868787"></path>
        <path d="M1236.6 883.8c-119.5 0-216.3 96.8-216.3 216.3h432.6c0-119.5-96.8-216.3-216.3-216.3" fill="url(#a86801f3-24e9-4fcd-9ff2-64b04d6098b9_comp-m88xijrk)"></path>
        <path d="M1411.5 1100.1h-349.8c0-96.6 78.3-174.9 174.9-174.9s174.9 78.3 174.9 174.9" fill="#e1e1e5"></path>
        <path d="M1387 1083.7c-2.5 0-4.6-1.8-4.9-4.3-3.6-25.6-14-49.8-30-70.2-1.7-2.2-1.3-5.3.8-7 2.2-1.7 5.3-1.3 7 .8 17.1 21.7 28.2 47.6 32 74.9.4 2.7-1.5 5.3-4.3 5.6h-.7Z" fill="#8d8f91"></path>
        <path d="M1338.2 992.1c-1.2 0-2.4-.4-3.3-1.3-8.8-7.9-18.6-14.8-29-20.3-2.4-1.3-3.4-4.3-2-6.8 1.3-2.4 4.3-3.4 6.8-2 11.1 6 21.5 13.3 30.9 21.7 2.1 1.8 2.2 5 .4 7.1-1 1.1-2.4 1.7-3.7 1.7Z" fill="#8d8f91"></path>
        <path d="M1089.4 1067.8c-.4 0-.8 0-1.2-.2-2.7-.7-4.3-3.4-3.6-6.1 3.1-12.2 7.6-24 13.5-35.1 15.5-29.1 40.3-53 69.8-67.4 2.5-1.2 5.5-.2 6.7 2.3s.2 5.5-2.3 6.7c-27.7 13.5-50.9 35.9-65.4 63.2-5.5 10.4-9.8 21.4-12.7 32.8-.6 2.3-2.6 3.8-4.8 3.8" fill="#8d8f91"></path>
        <path fill="url(#ea333a91-698e-4997-84e9-111991daa688_comp-m88xijrk)" d="m1320.4 1031.1-50.9 62-5.7 7h-9.9l-21.4-27.6 8-3.7z"></path>
        <path d="M1267.1 1100.3h-60.8c.7-16.2 14-29.1 30.4-29.1s1.7 0 2.5.1c13 1 23.7 10.3 27 22.6.6 2.1.9 4.2 1 6.4Z" fill="url(#4ee34dfa-5e6d-4a10-971e-8323f438d792_comp-m88xijrk)"></path>
        <path d="M475.7 118.9 306 288.6c-4 4-4 10.4 0 14.3l32.1 32.1c4 4 10.4 4 14.3 0l169.7-169.7z" fill="url(#7e202c58-fb6d-4e94-ac82-54c8d221a041_comp-m88xijrk)"></path>
        <path d="m770.4 0-108 28.9c-1.9.5-2.6 3-1.2 4.4l16.3 16.3-182.7 182.7 46.4 46.4L723.9 96l16.3 16.3c1.4 1.4 3.9.8 4.4-1.2l28.9-108c.5-1.9-1.3-3.7-3.2-3.2Z" fill="url(#0d23e7c5-7471-4bf7-8737-a13bfc1ee86b_comp-m88xijrk)"></path>
        <path transform="rotate(-90 508.5 198.8)" d="M443.1 166h145.4v54.7c0 6-4.9 10.9-10.9 10.9h-149v-51c0-8 6.5-14.6 14.6-14.6Z" fill="url(#7394f618-1179-4cf8-b425-f75a463d825f_comp-m88xijrk)"></path>
    </g>
</svg>